# xmcd
#
# Track frame offsets:
#	150
#	21720
#	39989
#	62595
#	86288
#	101654
#	125012
#	146672
#
# Disc length: 2219 seconds
#
# Revision: 0
# Processed by: cddbd v1.5.2PL0 Copyright (c) Steve Scherf et al.
# Submitted via: EasyCDDAExtractor 12.0.0.1
#
DISCID=6b08a908
DTITLE=Jason Mraz - The EPs (Warner Music-2009)
DYEAR=2009
DGENRE=country
TTITLE0=I'm Yours (from The Casa Nova Sessions)
TTITLE1=Live High (from An Avocado Salad Session)
TTITLE2=If It Kills Me (from The Casa Nova Sessions)
TTITLE3=A Beautiful Mess (from a raining Jane Session)
TTITLE4=Make It Mine (from The Casa Nova Sessions)
TTITLE5=Butterfly (from The Casa Nova Sessions)
TTITLE6=Only Human (from The Casa Nova Sessions)
TTITLE7=The Dynamo Of Volition (from An All Night Session)
EXTD=
EXTT0=
EXTT1=
EXTT2=
EXTT3=
EXTT4=
EXTT5=
EXTT6=
EXTT7=
PLAYORDER=
